<svg preserveAspectRatio="none" overflow="visible" style="display: block;" width="1722.14" height="864.67" viewBox="0 0 1722.14 864.67" fill="none" xmlns="http://www.w3.org/2000/svg">
<g id="Group">
<g id="Group_2">
<path id="Vector" d="M635.593 342.441C606.063 334.909 561.914 378.386 500.6 475.381C432.122 583.764 354.987 638.701 271.343 638.7C270.833 638.7 270.288 638.7 269.779 638.7C176.715 637.935 84.0141 569.971 0.0409384 478.722L0.0409824 482.178C39.4273 524.746 77.7951 558.983 114.526 584.233C168.532 621.38 220.792 640.445 269.779 640.846C270.324 640.846 270.834 640.846 271.379 640.846C355.787 640.847 433.54 585.583 502.454 476.545C563.186 380.459 606.572 337.274 635.084 344.514C676.579 355.102 684.291 473.673 692.438 599.266C698.44 691.424 704.879 790.494 724.518 864.642L726.7 864.642C707.024 790.712 700.586 691.46 694.584 599.121C686.036 467.27 678.616 353.392 635.63 342.441L635.593 342.441Z" fill="url(#paint0_linear_2177_235)" fill-opacity="0.18"/>
<path id="Vector_2" d="M1308.79 623.196C1256.49 605.66 1179.58 658.96 1073.53 786.118C1048.87 815.697 1025.56 841.856 1003.56 864.595H1006.54C1028.14 842.183 1051.02 816.497 1075.2 787.5C1180.6 661.07 1256.75 607.988 1308.1 625.234C1363.52 643.825 1384.14 743.55 1394.58 864.595H1396.73C1386.22 742.713 1365.3 642.152 1308.79 623.196Z" fill="url(#paint1_linear_2177_235)" fill-opacity="0.18"/>
</g>
<g id="Group_3">
<path id="Vector_3" d="M637.191 330.863C607.225 323.478 563.439 365.827 503.36 460.313C436.808 564.985 360.873 618.068 277.628 618.068L277.447 618.068C182.71 617.995 87.1368 549.923 0.000885404 458.202L0.000885404 461.55C40.8049 504.263 80.4452 538.644 118.194 563.894C173.945 601.223 227.514 620.142 277.41 620.214L277.592 620.214C361.6 620.214 438.153 566.805 505.142 461.477C564.675 367.864 607.661 325.842 636.646 332.973C679.195 343.452 688.542 455.91 699.379 586.124C707.526 683.957 716.326 789.576 741.02 864.597L743.238 864.597C718.545 789.867 709.708 683.957 701.525 585.942C690.615 454.892 681.196 341.742 637.155 330.863L637.191 330.863Z" fill="url(#paint2_linear_2177_235)" fill-opacity="0.18"/>
<path id="Vector_4" d="M1089.71 778.806C1193.72 656.015 1269.66 604.715 1321.84 621.924C1379.38 640.88 1401.92 742.314 1414.44 864.597H1416.58C1403.96 741.441 1381.12 639.206 1322.5 619.851C1269.37 602.314 1192.67 653.868 1088.04 777.387C1059.49 811.078 1032.8 840.075 1007.81 864.597H1010.87C1035.49 840.366 1061.75 811.805 1089.71 778.806Z" fill="url(#paint3_linear_2177_235)" fill-opacity="0.18"/>
</g>
<g id="Group_4">
<path id="Vector_5" d="M1336.28 616.793C1282.28 599.293 1205.87 649.065 1102.59 768.982C1069.97 806.893 1039.67 838.691 1011.6 864.595H1014.72C1042.44 838.909 1072.22 807.584 1104.22 770.401C1206.85 651.211 1282.57 601.622 1335.63 618.831C1395.31 638.186 1419.82 741.149 1434.58 864.595H1436.73C1421.89 740.312 1397.05 636.476 1336.28 616.793Z" fill="url(#paint4_linear_2177_235)" fill-opacity="0.18"/>
<path id="Vector_6" d="M638.61 319.477C608.207 312.236 564.821 353.422 505.943 445.433C441.609 545.995 367.238 597.258 284.975 597.731C284.539 597.731 284.175 597.731 283.739 597.731C187.875 597.731 89.9378 529.841 0.0379738 438.12L0.0379738 441.177C89.9014 532.461 187.766 599.914 283.739 599.878C284.139 599.878 284.575 599.878 284.975 599.878C368.038 599.368 442.991 547.778 507.761 446.561C566.094 355.423 608.716 314.529 638.101 321.514C681.742 331.919 693.125 443.723 706.326 573.209C716.909 676.863 728.365 789.358 758.768 864.561L761.059 864.561C730.583 789.759 719.091 676.936 708.472 572.991C695.198 442.705 683.706 330.173 638.61 319.404L638.61 319.477Z" fill="url(#paint5_linear_2177_235)" fill-opacity="0.18"/>
</g>
<g id="Group_5">
<path id="Vector_7" d="M639.847 308.204C609.044 301.109 566.022 341.202 508.345 430.775C446.231 527.261 373.533 576.705 292.325 577.759C291.416 577.759 290.543 577.759 289.671 577.759C192.788 577.757 92.6685 510.157 0.0399929 418.545L0.0400291 421.528C92.5958 512.704 192.679 579.904 289.671 579.905C290.58 579.905 291.453 579.905 292.362 579.905C374.334 578.851 447.613 529.081 510.163 431.94C567.295 343.24 609.554 303.437 639.375 310.314C684.107 320.611 697.564 431.833 713.131 560.664C726.406 670.467 740.882 790.202 777.868 864.642L780.232 864.642C743.136 790.712 728.588 670.54 715.276 560.409C699.6 430.814 686.07 318.865 639.884 308.24L639.847 308.204Z" fill="url(#paint6_linear_2177_235)" fill-opacity="0.18"/>
<path id="Vector_8" d="M1350.07 613.991C1295.22 596.528 1219.03 644.589 1117.1 760.977C1080.04 803.254 1045.93 837.781 1014.61 864.631H1017.85C1048.76 837.927 1082.33 803.909 1118.7 762.396C1220.02 646.736 1295.48 598.893 1349.37 616.065C1411.2 635.785 1437.82 740.166 1454.88 864.668H1457.02C1439.86 739.366 1412.98 634.111 1350.03 614.028L1350.07 613.991Z" fill="url(#paint7_linear_2177_235)" fill-opacity="0.18"/>
</g>
<g id="Group_6">
<path id="Vector_9" d="M1363.92 611.375C1308.27 593.948 1232.3 640.336 1131.68 753.195C1089.71 800.274 1051.49 837.311 1016.72 864.598H1020.14C1054.47 837.384 1092.11 800.783 1133.28 754.614C1233.29 642.446 1308.53 596.276 1363.26 613.413C1427.27 633.459 1456.07 739.187 1475.49 864.562H1477.67C1458.14 738.314 1429.05 631.749 1363.92 611.339V611.375Z" fill="url(#paint8_linear_2177_235)" fill-opacity="0.18"/>
<path id="Vector_10" d="M299.524 560.188C380.296 558.624 451.902 510.6 512.271 417.461C568.239 331.162 610.133 292.452 640.355 299.146C686.214 309.298 701.744 420.047 719.711 548.259C736.005 664.538 753.899 792.023 798.45 864.607L800.923 864.607C756.154 792.715 738.187 664.684 721.82 547.968C703.744 418.955 688.105 307.551 640.791 297.073C609.588 290.16 566.93 329.161 510.452 416.297C450.484 508.817 379.496 556.514 299.451 558.041C298.069 558.041 296.724 558.078 295.342 558.078C197.55 558.076 95.2484 490.804 0.00150943 399.373L0.00154455 402.32C95.1757 493.351 197.441 560.223 295.342 560.224C296.724 560.224 298.106 560.224 299.488 560.188L299.524 560.188Z" fill="url(#paint9_linear_2177_235)" fill-opacity="0.18"/>
</g>
<g id="Group_7">
<path id="Vector_11" d="M1377.81 609.045C1321.33 591.654 1245.61 636.405 1146.26 745.771C1098.8 798.053 1056.03 837.565 1017.56 864.597H1021.23C1059.23 837.492 1101.35 798.453 1147.86 747.227C1246.56 638.515 1321.59 593.983 1377.19 611.119C1443.42 631.493 1474.47 738.422 1496.33 864.633H1498.51C1476.51 737.585 1445.16 629.82 1377.81 609.082V609.045Z" fill="url(#paint10_linear_2177_235)" fill-opacity="0.18"/>
<path id="Vector_12" d="M641.593 286.077C609.99 279.346 567.731 317.256 512.38 402.028C454.52 490.656 385.204 536.644 306.433 538.645C304.578 538.681 302.759 538.718 300.905 538.718C202.277 538.718 97.9028 471.846 0.0749483 380.635L0.0749483 383.546C97.8664 474.393 202.204 540.901 300.941 540.864C302.796 540.864 304.687 540.864 306.542 540.791C386.077 538.754 455.975 492.439 514.235 403.192C569.04 319.258 610.572 281.638 641.193 288.187C688.216 298.228 705.854 408.468 726.256 536.171C745.967 659.435 767.678 795.324 821.029 864.633L823.72 864.633C770.006 796.27 748.149 659.654 728.365 535.807C707.818 407.34 690.107 296.409 641.629 286.077L641.593 286.077Z" fill="url(#paint11_linear_2177_235)" fill-opacity="0.18"/>
</g>
<g id="Group_8">
<path id="Vector_13" d="M1391.74 606.972C1334.46 589.653 1258.93 632.73 1160.88 738.713C1106.99 796.962 1058.98 838.802 1016.36 864.633H1020.43C1062.55 838.547 1109.71 797.18 1162.45 740.205C1259.87 634.913 1334.68 591.982 1391.09 609.082C1459.53 629.784 1492.92 737.767 1517.32 864.67H1519.5C1494.95 736.93 1461.24 628.074 1391.71 607.008L1391.74 606.972Z" fill="url(#paint12_linear_2177_235)" fill-opacity="0.18"/>
<path id="Vector_14" d="M642.139 275.199C610.136 268.65 568.277 305.542 514.09 387.912C458.266 472.793 390.696 517.071 313.197 519.545C211.842 522.783 102.813 455.329 0.0391726 362.262L0.0391726 365.137C100.413 455.729 206.751 521.837 306.251 521.837C308.579 521.837 310.943 521.8 313.27 521.727C391.496 519.253 459.648 474.648 515.872 389.149C569.514 307.579 610.681 271.015 641.703 277.345C689.926 287.205 709.673 397.081 732.548 524.311C756.114 655.288 782.262 800.6 846.087 864.67L849.105 864.67C784.662 801.983 758.332 655.688 734.657 523.91C711.637 395.916 691.78 285.386 642.103 275.235L642.139 275.199Z" fill="url(#paint13_linear_2177_235)" fill-opacity="0.18"/>
</g>
<g id="Group_9">
<path id="Vector_15" d="M740.912 512.157C715.382 384.563 693.344 274.396 642.466 264.427C610.135 258.06 568.604 293.897 515.544 373.975C461.721 455.218 395.86 497.858 319.743 500.696C217.406 504.553 105.904 437.427 0.0387423 344.178L0.0387423 347.016C102.958 437.354 211.223 502.988 311.379 502.988C314.179 502.988 317.016 502.952 319.816 502.843C396.66 499.968 463.103 457.001 517.326 375.176C569.841 295.898 610.645 260.389 642.03 266.537C691.453 276.252 713.382 385.763 738.766 512.593C766.769 652.594 798.118 809.003 874.998 864.632L878.708 864.632C800.7 811.149 769.097 653.285 740.876 512.193L740.912 512.157Z" fill="url(#paint14_linear_2177_235)" fill-opacity="0.18"/>
<path id="Vector_16" d="M1405.78 605.115C1347.7 587.869 1272.42 629.346 1175.61 731.945C1113.64 797.579 1059.34 841.638 1011.85 864.632H1016.69C1063.56 841.02 1116.8 797.433 1177.17 733.436C1273.37 631.492 1347.95 590.198 1405.16 607.189C1475.82 628.181 1511.64 737.111 1538.63 864.632H1540.81C1513.68 736.274 1477.53 626.471 1405.78 605.115Z" fill="url(#paint15_linear_2177_235)" fill-opacity="0.18"/>
</g>
<g id="Group_10">
<path id="Vector_17" d="M1419.81 603.516C1360.97 586.343 1285.91 626.218 1190.3 725.507C1116.55 802.092 1053.38 848.189 999.299 864.634H1006.21C1059.27 846.479 1120.69 800.855 1191.83 726.998C1286.82 628.365 1361.15 588.671 1419.16 605.589C1492.04 626.873 1530.37 736.603 1560.01 864.634H1562.23C1532.44 735.766 1493.78 625.127 1419.78 603.516H1419.81Z" fill="url(#paint16_linear_2177_235)" fill-opacity="0.18"/>
<path id="Vector_18" d="M326.179 484.289C401.604 481.051 466.338 439.721 518.634 361.425C570.021 284.44 610.462 249.912 642.21 255.916C692.87 265.448 717.018 374.669 744.911 501.171C778.405 652.887 816.155 823.958 911.291 864.634L917.11 864.634C819.355 828.36 780.987 654.56 747.02 500.698C718.945 373.468 694.688 263.592 642.61 253.805C609.916 247.657 568.785 282.475 516.852 360.261C464.993 437.938 400.804 478.978 326.106 482.179C222.859 486.618 108.921 419.783 0.0373326 326.534L0.0373326 329.336C105.43 419.383 215.586 484.58 316.36 484.544C319.633 484.544 322.942 484.471 326.179 484.326L326.179 484.289Z" fill="url(#paint17_linear_2177_235)" fill-opacity="0.18"/>
</g>
<path id="Vector_19" d="M1433.96 602.131C1374.36 585.031 1299.51 623.378 1205.14 719.356C1096.22 830.141 1009.81 874.71 941.005 855.682C834.34 826.139 791.136 647.282 752.987 489.454C722.293 362.479 695.817 252.858 642.467 243.253C609.482 237.322 568.714 271.122 517.873 346.652C467.868 420.909 405.389 460.348 332.181 463.877C328.508 464.059 324.799 464.132 321.089 464.132C219.916 464.132 107.941 399.116 0.0394027 309.105L0.0394027 311.87C107.868 401.59 219.843 466.278 321.126 466.278C324.872 466.278 328.581 466.205 332.291 466.024C406.225 462.458 469.286 422.692 519.655 347.853C569.95 273.123 609.991 239.614 642.067 245.399C693.999 254.713 720.365 363.752 750.877 489.963C789.136 648.373 832.558 827.885 940.423 857.755C1010.03 877.038 1097.13 832.251 1206.67 720.884C1300.46 625.525 1374.58 587.36 1433.35 604.241C1508.44 625.78 1549.36 736.201 1581.69 864.668H1583.91C1551.39 735.364 1510.15 624.07 1433.93 602.167L1433.96 602.131Z" fill="url(#paint18_linear_2177_235)" fill-opacity="0.18"/>
<path id="Vector_20" d="M1448.15 600.967C1387.81 583.94 1313.19 620.759 1220.01 713.499C1112.48 820.5 1026.36 863.323 956.716 844.367C847.25 814.606 800.3 635.967 758.878 478.394C725.565 351.637 696.799 242.162 642.175 232.811C608.863 227.099 568.495 259.953 518.781 333.191C470.631 404.137 409.861 442.048 338.145 445.832C233.408 451.398 114.923 385.327 0.111675 292.006L0.111675 294.771C110.341 384.127 224.025 448.342 325.78 448.306C329.963 448.306 334.145 448.197 338.254 447.978C410.661 444.122 472.013 405.92 520.563 334.392C569.768 261.881 609.408 229.355 641.848 234.921C695.09 244.053 723.711 352.91 756.841 478.94C798.409 637.095 845.541 816.352 956.207 846.441C967.044 849.388 978.245 850.88 989.882 850.88C1053.85 850.88 1130.11 806.093 1221.61 715.027C1314.21 622.87 1388.14 586.269 1447.67 603.041C1525.03 624.871 1568.52 735.801 1603.65 864.596H1605.87C1570.56 734.965 1526.74 623.088 1448.26 600.967H1448.15Z" fill="url(#paint19_linear_2177_235)" fill-opacity="0.18"/>
<path id="Vector_21" d="M343.856 430.26C414.699 426.185 474.342 389.475 521.146 321.148C569.26 250.857 608.537 219.277 641.231 224.625C695.818 233.539 726.73 342.286 762.516 468.17C807.429 626.18 858.343 805.256 971.882 835.599C1043.16 854.663 1129.72 813.405 1236.45 709.533C1327.88 620.577 1401.6 585.468 1461.86 602.168C1541.39 624.216 1587.62 735.619 1625.55 864.632H1627.8C1589.69 734.746 1543.14 622.469 1462.48 600.094C1401.42 583.14 1327.01 618.467 1235 708.005C1128.84 811.332 1042.98 852.371 972.5 833.525C860.125 803.509 809.393 625.052 764.625 467.588C728.621 340.977 697.527 231.611 641.595 222.478C607.991 216.985 568.024 248.856 519.364 319.911C472.996 387.656 413.899 424.038 343.747 428.113C238.464 434.189 117.797 368.555 0.076365 275.27L0.076365 277.998C112.669 367.027 227.99 430.696 330.145 430.66C334.728 430.66 339.346 430.514 343.892 430.26H343.856Z" fill="url(#paint20_linear_2177_235)" fill-opacity="0.18"/>
<path id="Vector_22" d="M349.274 412.761C418.517 408.468 476.486 373.213 521.546 308.015C568.605 239.907 607.518 209.273 640.466 214.366C696.399 223.025 729.639 331.737 768.188 457.584C816.52 615.485 871.289 794.487 987.774 825.085C1059.85 844.004 1146.08 804.529 1251.47 704.331C1341.74 618.468 1415.27 584.851 1476.22 601.477C1557.98 623.78 1606.93 735.438 1647.66 864.597H1649.91C1608.93 734.602 1559.65 621.997 1476.77 599.404C1415.02 582.558 1340.83 616.358 1249.98 702.767C1145.21 802.419 1059.6 841.712 988.319 823.011C872.999 792.705 818.411 614.32 770.225 456.966C731.494 330.427 698.036 221.133 640.794 212.256C606.936 207.017 567.368 237.942 519.8 306.778C475.141 371.394 417.753 406.357 349.165 410.614C243.409 417.163 120.669 351.965 0.0755914 258.717L0.0755914 261.409C114.996 350.073 231.88 413.197 334.363 413.197C339.382 413.197 344.364 413.052 349.31 412.724L349.274 412.761Z" fill="url(#paint21_linear_2177_235)" fill-opacity="0.18"/>
<path id="Vector_23" d="M1491.13 598.968C1428.72 582.232 1354.75 614.576 1265.04 697.856C1161.61 793.906 1076.29 831.526 1004.21 812.898C885.835 782.3 827.32 603.916 775.715 446.525C734.22 319.986 698.362 210.693 639.738 202.07C605.661 197.049 566.458 227.065 519.944 293.754C476.958 355.386 421.243 388.895 354.291 393.333C248.171 400.355 123.432 335.594 0.074093 242.418L0.074093 245.147C117.249 333.411 235.661 396.026 338.362 396.026C343.745 396.026 349.127 395.844 354.436 395.516C422.08 391.041 478.376 357.242 521.726 295.027C567.73 229.066 606.243 199.341 639.447 204.253C696.725 212.694 732.401 321.368 773.678 447.216C825.465 605.117 884.198 784.119 1003.7 815.008C1076.54 833.818 1162.52 796.016 1266.53 699.457C1355.66 616.686 1428.98 584.488 1490.62 601.078C1574.56 623.599 1626.27 735.439 1669.91 864.634H1672.17C1628.27 734.566 1576.19 621.816 1491.17 599.004L1491.13 598.968Z" fill="url(#paint22_linear_2177_235)" fill-opacity="0.18"/>
<path id="Vector_24" d="M1505.61 598.785C1442.55 582.121 1368.83 613.047 1280.2 693.307C1178.08 785.828 1093.06 821.774 1020.25 803.255C898.782 772.366 836.267 593.873 781.098 436.372C736.766 309.761 698.472 200.431 638.466 192.063C604.171 187.297 565.404 216.367 519.908 280.946C478.559 339.704 424.444 371.793 359.129 376.377C252.755 383.836 126.124 319.584 0.0385476 226.554L0.0385476 229.173C119.432 317.074 239.262 379.143 342.145 379.143C347.891 379.143 353.637 378.961 359.274 378.56C425.281 373.94 479.904 341.523 521.654 282.219C566.64 218.368 604.717 189.553 638.138 194.21C696.835 202.396 734.948 311.143 779.061 437.064C834.412 595.074 897.109 774.149 1019.7 805.329C1032.21 808.531 1045.09 810.131 1058.33 810.131C1122.91 810.131 1196.45 772.111 1281.66 694.908C1369.7 615.157 1442.76 584.413 1505.06 600.895C1591.14 623.634 1645.66 735.474 1692.21 864.669H1694.5C1647.69 734.637 1592.78 621.888 1505.61 598.821V598.785Z" fill="url(#paint23_linear_2177_235)" fill-opacity="0.18"/>
<path id="Vector_25" d="M1520.19 598.821C1456.51 582.23 1383.01 611.737 1295.47 689.014C1194.63 778.042 1109.86 812.351 1036.36 793.941C911.691 762.688 845.102 584.013 786.333 426.367C739.092 299.646 698.324 190.207 636.9 182.131C602.424 177.583 564.093 205.779 519.616 268.285C479.83 324.241 427.352 354.984 363.673 359.678C269.263 366.627 147.215 316.492 0.000414731 210.473L0.000414731 213.129C53.0239 251.258 102.811 282.292 148.706 305.65C230.751 347.417 303.121 366.299 363.855 361.861C428.188 357.131 481.212 326.06 521.398 269.558C565.329 207.78 603.042 179.875 636.645 184.313C696.76 192.209 737.346 301.102 784.333 427.168C843.284 585.323 910.091 764.544 1035.85 796.051C1110.11 814.643 1195.5 780.188 1296.89 690.651C1383.85 613.883 1456.69 584.559 1519.64 600.931C1607.83 623.889 1665.22 735.62 1714.68 864.669H1716.97C1667.22 734.783 1609.47 622.106 1520.15 598.857L1520.19 598.821Z" fill="url(#paint24_linear_2177_235)" fill-opacity="0.18"/>
<path id="Vector_26" d="M368.22 345.307C430.917 340.504 482.304 310.78 520.962 256.933C563.875 197.193 601.152 170.197 634.937 174.381C696.507 182.021 739.602 291.06 789.534 417.344C852.158 575.718 923.111 755.23 1052.11 787.065C1127.06 805.583 1212.12 772.694 1312.28 686.612C1398.14 612.755 1470.8 584.814 1534.3 601.149C1616.02 622.142 1673.11 715.464 1722.06 828.504V823.12C1673.29 711.607 1616.27 619.996 1534.81 599.039C1470.55 582.521 1397.27 610.645 1310.82 684.975C1211.25 770.583 1126.77 803.291 1052.58 784.991C924.675 753.411 853.94 574.445 791.498 416.544C741.311 289.641 697.998 180.02 635.155 172.234C600.533 167.941 562.602 195.228 519.18 255.696C480.885 308.96 430.044 338.394 368.038 343.16C273.483 350.4 149.98 300.556 0.00124314 194.901L0.00124314 197.557C53.2429 235.031 103.175 265.592 149.143 288.732C233.188 331.008 306.868 350.036 368.183 345.343L368.22 345.307Z" fill="url(#paint25_linear_2177_235)" fill-opacity="0.18"/>
<path id="Vector_27" d="M1549.61 599.55C1484.8 583.105 1411.78 609.846 1326.35 681.302C1228.01 763.563 1143.82 794.707 1068.98 776.443C937.766 744.462 862.74 565.132 796.588 406.94C743.383 279.783 697.451 169.944 633.19 162.449C598.459 158.411 560.928 184.824 518.524 243.255C481.72 293.936 432.443 322.096 372.073 326.899C277.482 334.43 152.633 284.913 0 179.585L0 182.278C53.3507 219.097 103.319 249.113 149.324 271.997C235.405 314.783 310.394 333.993 372.255 329.082C433.279 324.206 483.066 295.755 520.27 244.528C562.201 186.789 599.078 160.63 632.935 164.596C695.96 171.945 741.674 281.238 794.588 407.777C860.958 566.478 936.166 746.318 1068.47 778.553C1144.04 796.962 1228.85 765.71 1327.73 682.976C1412.58 611.993 1484.95 585.397 1549.06 601.66C1621.11 619.924 1675.4 691.671 1722.06 783.392V778.662C1675.55 688.251 1621.4 617.778 1549.57 599.55H1549.61Z" fill="url(#paint26_linear_2177_235)" fill-opacity="0.18"/>
<path id="Vector_28" d="M1564.48 600.278C1499.13 583.905 1426.32 609.3 1341.95 677.918C1244.81 756.905 1160.95 786.448 1085.49 768.293C950.894 735.876 871.54 556.109 801.57 397.517C745.31 270.032 696.723 159.938 630.971 152.735C596.131 148.951 559.073 174.492 517.651 230.921C482.229 279.128 434.515 306.051 375.855 310.89C281.3 318.676 155.215 269.523 0.0358085 164.595L0.0358085 167.215C53.3866 203.27 103.319 232.813 149.214 255.407C237.332 298.775 313.631 318.167 376 313.037C435.352 308.125 483.575 280.947 519.36 232.194C560.31 176.456 596.713 151.134 630.717 154.881C695.232 161.94 743.564 271.524 799.57 398.39C869.758 557.455 949.294 737.731 1084.94 770.403C1161.1 788.74 1245.61 759.051 1343.26 679.628C1427.05 611.483 1499.24 586.197 1563.9 602.424C1627.32 618.323 1677.95 673.589 1722.02 747.045V742.898C1678.09 670.496 1627.62 616.14 1564.41 600.314L1564.48 600.278Z" fill="url(#paint27_linear_2177_235)" fill-opacity="0.18"/>
<path id="Vector_29" d="M1579.47 601.222C1513.61 584.887 1441.05 608.972 1357.7 674.825C1261.76 750.573 1178.19 778.588 1102.15 760.469C964.098 727.579 880.345 547.303 806.483 388.238C747.095 260.354 695.781 149.932 628.574 143.019C593.662 139.418 557.076 164.194 516.6 218.659C482.56 264.501 436.373 290.187 379.35 295.026C284.94 303.03 157.691 254.241 0.0756158 149.714L0.0756158 152.297C53.3536 187.588 103.14 216.622 148.927 238.961C239.118 282.911 316.689 302.521 379.531 297.173C437.21 292.261 483.905 266.284 518.309 219.932C558.276 166.122 594.28 141.673 628.356 145.166C694.363 151.933 745.422 261.845 804.555 389.148C878.636 548.65 962.607 729.435 1101.68 762.58C1178.41 780.844 1262.6 752.72 1359.08 676.498C1441.89 611.082 1513.83 587.142 1579 603.296C1634.57 617.085 1681.01 659.617 1722.14 717.683V713.972C1681.15 656.779 1634.86 614.939 1579.51 601.222H1579.47Z" fill="url(#paint28_linear_2177_235)" fill-opacity="0.18"/>
<path id="Vector_30" d="M1594.56 602.387C1528.19 586.124 1455.93 608.863 1373.52 671.987C1278.75 744.607 1195.43 771.13 1118.84 753.048C977.262 719.648 889.035 538.754 811.173 379.18C748.585 250.858 694.507 140.037 625.773 133.451C590.86 130.104 554.675 154.044 515.18 206.58C482.449 250.13 437.754 274.652 382.403 279.455C288.212 287.641 159.908 239.143 0.00148879 135.125L0.00148879 137.708C53.0613 172.199 102.63 200.686 148.162 222.698C240.425 267.303 319.306 287.095 382.585 281.601C438.59 276.726 483.795 251.913 516.889 207.854C555.911 155.972 591.442 132.323 625.554 135.561C693.088 142.038 746.876 252.35 809.209 380.089C887.289 540.1 975.771 721.468 1118.33 755.121C1195.57 773.349 1279.47 746.717 1374.79 673.697C1456.62 611.01 1528.33 588.38 1594.01 604.461C1642.35 616.322 1684.28 648.884 1722.06 694.071V690.761C1684.42 646.265 1642.67 614.175 1594.52 602.387H1594.56Z" fill="url(#paint29_linear_2177_235)" fill-opacity="0.18"/>
<path id="Vector_31" d="M385.46 266.211C439.829 261.372 483.543 237.723 515.4 195.847C553.477 145.821 588.571 122.972 622.684 126.028C691.745 132.213 748.369 242.962 813.939 371.247C896.056 531.84 989.12 713.899 1135.24 748.099C1213 766.29 1296.57 741.15 1390.76 671.222C1471.64 611.191 1543.1 589.798 1609.25 605.879C1650.82 615.993 1687.99 640.697 1722.07 675.188V672.132C1688.13 638.15 1651.15 613.847 1609.76 603.769C1542.96 587.542 1470.91 609.008 1389.49 669.44C1295.84 738.967 1212.85 763.998 1135.75 745.952C990.611 712.007 897.766 530.421 815.867 370.229C750.005 241.398 693.091 130.14 622.866 123.845C587.917 120.717 552.24 143.856 513.655 194.501C482.197 235.831 438.993 259.225 385.242 264.028C291.342 272.359 162.093 224.225 0.00381434 120.68L0.00381434 123.3C52.7363 156.99 101.978 184.823 147.218 206.543C241.591 251.803 321.745 271.886 385.424 266.211H385.46Z" fill="url(#paint30_linear_2177_235)" fill-opacity="0.18"/>
<path id="Vector_32" d="M1405.63 667.295C1313.08 733.802 1230.38 757.342 1152.81 739.332C1003.99 704.732 906.49 522.419 820.445 361.571C751.239 232.158 691.451 120.391 619.698 114.424C584.858 111.55 549.582 133.852 511.942 182.642C481.685 221.898 439.935 244.165 387.821 248.894C294.284 257.335 164.199 209.528 0.036863 106.493L0.036863 109.076C52.333 141.893 101.174 169.18 146.015 190.537C242.497 236.488 323.924 256.826 388.003 251.041C440.735 246.275 482.994 223.718 513.615 183.951C550.746 135.781 585.404 113.696 619.48 116.534C690.069 122.392 749.566 233.686 818.518 362.517C904.781 523.802 1002.54 706.552 1152.3 741.37C1230.52 759.561 1313.8 735.876 1406.87 669.005C1486.8 611.556 1558.05 591.437 1624.63 607.518C1659.8 615.995 1692.02 634.477 1722.06 660.164V657.326C1692.17 632.04 1660.09 613.885 1625.14 605.408C1557.9 589.181 1486.11 609.41 1405.63 667.258V667.295Z" fill="url(#paint31_linear_2177_235)" fill-opacity="0.18"/>
<path id="Vector_33" d="M1421.93 665.365C1330.46 728.925 1248.05 751.046 1170.01 733C1017.52 697.745 915.221 514.595 824.958 352.983C752.332 222.952 689.599 110.638 616.283 104.963C581.479 102.27 546.712 123.809 509.981 170.815C480.887 208.035 440.556 229.282 390.042 233.903C296.942 242.453 166.129 194.937 0.0760748 92.4835L0.0760748 95.0303C51.8267 126.974 100.122 153.606 144.527 174.599C243.155 221.278 325.854 241.943 390.26 236.013C441.356 231.32 482.233 209.817 511.69 172.089C547.912 125.701 582.097 104.453 616.137 107.037C688.253 112.603 750.732 224.443 823.067 353.966C913.548 515.941 1016.1 699.564 1169.54 735.037C1187.18 739.112 1205.03 741.15 1223.14 741.15C1285.88 741.15 1351.81 716.664 1423.16 667.075C1502.22 612.137 1573.21 593.254 1640.2 609.372C1669.22 616.357 1696.39 629.782 1722.1 648.265V645.609C1696.54 627.454 1669.51 614.211 1640.71 607.261C1573.07 591.035 1501.5 609.99 1421.93 665.292V665.365Z" fill="url(#paint32_linear_2177_235)" fill-opacity="0.18"/>
<path id="Vector_34" d="M1438.33 663.727C1347.88 724.413 1265.76 745.115 1187.28 727.032C1031.05 691.05 923.84 506.99 829.285 344.578C753.168 213.819 687.416 100.924 612.572 95.5754C577.878 93.1014 543.547 113.876 507.726 159.099C479.759 194.391 440.773 214.619 391.896 219.131C299.305 227.717 167.874 180.529 0.0387505 78.6938L0.0387505 81.277C51.0984 112.275 98.7758 138.252 142.635 158.881C243.408 206.324 327.344 227.317 392.114 221.314C441.646 216.73 481.105 196.246 509.435 160.482C544.784 115.841 578.423 95.3207 612.427 97.7583C686.107 103.034 751.604 215.493 827.43 345.706C922.203 508.482 1029.63 692.978 1186.81 729.179C1265.91 747.407 1348.57 726.596 1439.53 665.546C1517.72 613.082 1588.45 595.436 1655.88 611.554C1678.97 617.084 1701.01 626.507 1722.1 639.205V636.694C1701.15 624.251 1679.3 614.938 1656.38 609.48C1588.38 593.217 1517.06 610.972 1438.36 663.799L1438.33 663.727Z" fill="url(#paint33_linear_2177_235)" fill-opacity="0.18"/>
<path id="Vector_35" d="M1454.91 662.419C1365.48 720.303 1283.66 739.622 1204.74 721.504C1044.69 684.721 932.53 499.679 833.574 336.394C753.894 204.907 685.051 91.3202 608.679 86.263C574.094 83.9709 540.273 104.018 505.36 147.495C478.485 180.967 440.845 200.177 393.494 204.579C301.449 213.166 169.545 166.341 0.0735587 65.1247L0.0735587 67.6715C50.3695 97.7236 97.2832 122.973 140.487 143.202C232.024 186.097 309.522 207.708 371.31 207.708C379.02 207.708 386.476 207.381 393.676 206.69C441.645 202.215 479.758 182.713 507.033 148.805C541.509 105.91 574.712 86.1539 608.534 88.3732C683.778 93.3577 752.366 206.471 831.756 337.449C930.93 501.062 1043.34 686.54 1204.3 723.541C1283.8 741.805 1366.17 722.377 1456.11 664.201C1533.43 614.175 1603.98 597.694 1671.73 613.848C1689.08 617.995 1705.84 624.217 1722.14 632.294V629.892C1706.02 621.997 1689.4 615.849 1672.24 611.738C1603.87 595.438 1532.77 611.992 1454.95 662.382L1454.91 662.419Z" fill="url(#paint34_linear_2177_235)" fill-opacity="0.18"/>
<path id="Vector_36" d="M1471.64 661.363C1336.2 745.771 1213.36 743.479 1096.18 654.269C994.171 576.628 911.072 444.705 837.755 328.317C754.402 195.993 682.395 81.715 604.46 76.9489C570.056 74.8751 536.707 94.1579 502.631 135.925C476.811 167.614 440.443 185.879 394.657 190.172C303.339 198.758 170.962 152.261 0.0359223 51.6994L0.0359223 54.2825C49.4226 83.3523 95.4999 107.874 137.977 127.666C243.151 176.71 329.56 198.467 394.911 192.318C441.316 187.952 478.156 169.434 504.377 137.271C537.98 96.0498 570.711 77.0217 604.387 79.0591C681.194 83.7525 752.911 197.594 835.973 329.408C909.399 445.942 992.607 578.047 1094.91 655.906C1212.88 745.735 1336.5 748.063 1472.8 663.11C1549.32 615.412 1619.65 600.131 1687.77 616.358C1699.44 619.123 1710.9 622.834 1722.13 627.345V625.017C1711.08 620.615 1699.8 616.976 1688.28 614.248C1619.54 597.876 1548.7 613.265 1471.67 661.291L1471.64 661.363Z" fill="url(#paint35_linear_2177_235)" fill-opacity="0.18"/>
<path id="Vector_37" d="M1488.55 660.599C1352.97 741.878 1228.7 737.512 1108.69 647.247C1004.24 568.696 917.982 436.773 841.865 320.385C754.766 187.188 679.558 72.1463 600.096 67.6712C565.838 65.7429 533.034 84.3345 499.795 124.465C454.663 179.002 376.328 191.045 266.972 160.265C193.073 139.454 103.537 98.5965 0.0361161 38.5651L0.0361161 41.0755C103.21 100.852 192.564 141.564 266.426 162.339C376.655 193.373 455.754 181.112 501.504 125.847C534.271 86.2627 566.492 67.9623 600.023 69.8542C678.431 74.2565 753.347 188.898 840.12 321.586C916.309 438.119 1002.68 570.225 1107.46 648.993C1170.99 696.763 1235.69 720.63 1302.6 720.63C1362.94 720.63 1425.05 701.238 1489.71 662.455C1576.96 610.136 1653.33 602.423 1722.13 624.471V622.033C1653.04 600.095 1576.3 608.026 1488.58 660.599H1488.55Z" fill="url(#paint36_linear_2177_235)" fill-opacity="0.18"/>
<path id="Vector_38" d="M1505.64 660.161C1369.88 738.311 1244.16 731.908 1121.24 640.588C1014.28 561.128 924.821 429.132 845.941 312.671C755.023 178.528 676.542 62.6858 595.479 58.4654C561.44 56.6827 529.109 74.5829 496.742 113.076C452.011 166.267 372.985 176.891 261.883 144.583C189.185 123.408 101.394 83.4967 0.0385602 25.5391L0.0385602 28.0132C101.103 85.716 188.675 125.519 261.264 146.621C373.276 179.183 453.029 168.377 498.379 114.458C530.309 76.4748 562.022 58.902 595.37 60.612C675.342 64.7596 753.568 180.202 844.159 313.872C923.148 430.478 1012.72 562.62 1119.97 642.298C1186.56 691.778 1253.94 716.482 1323.33 716.482C1382.79 716.482 1443.71 698.327 1506.73 662.017C1586.23 616.248 1657.22 606.861 1722.1 622.833V620.468C1656.93 604.569 1585.58 614.137 1505.68 660.161H1505.64Z" fill="url(#paint37_linear_2177_235)" fill-opacity="0.18"/>
<path id="Vector_39" d="M1522.92 659.982C1386.94 735.039 1259.65 726.562 1133.79 634.15C1024.28 553.708 931.62 421.603 849.83 305.033C755.021 169.871 673.158 53.1559 590.568 49.2266C556.747 47.6258 524.962 64.7984 493.395 101.727C449.063 153.608 369.31 162.777 256.39 128.941C185.037 107.548 99.1015 68.5458 0.0370915 12.6621L0.0370915 15.1361C98.8105 70.7651 184.528 109.622 255.808 130.978C369.601 165.069 450.118 155.682 495.068 103.109C526.198 66.6903 557.438 49.8087 590.532 51.3732C672.067 55.2661 753.675 171.581 848.121 306.27C929.948 422.949 1022.76 555.236 1132.55 635.86C1259.14 728.854 1387.19 737.368 1523.97 661.874C1596.01 622.108 1661.51 611.702 1722.1 622.581V620.252C1661.22 609.446 1595.4 620.034 1522.92 659.982Z" fill="url(#paint38_linear_2177_235)" fill-opacity="0.18"/>
<path id="Vector_40" d="M1540.41 660.09C1404.14 732.091 1275.26 721.577 1146.41 627.964C1034.29 546.54 938.387 414.253 853.724 297.537C754.95 161.321 669.633 43.6956 585.515 39.9846C551.948 38.5292 520.673 55.0106 489.906 90.4109C445.938 141.019 365.457 148.732 250.682 113.332C180.639 91.7934 96.7032 53.81 0.0390715 3.55918e-05V2.76512C145.944 83.9348 278.321 137.563 374.731 137.563C424.081 137.563 464.049 123.483 491.506 91.8662C521.836 56.9752 552.53 40.7122 585.406 42.1675C668.505 45.8422 753.532 163.067 851.978 298.811C936.714 415.635 1032.76 548.068 1145.13 629.711C1274.71 723.833 1404.32 734.384 1541.43 661.982C1606.2 627.746 1666.06 616.831 1722.1 623.453V621.161C1665.77 614.576 1605.58 625.636 1540.41 660.054V660.09Z" fill="url(#paint39_linear_2177_235)" fill-opacity="0.18"/>
</g>
<defs>
<linearGradient id="paint0_linear_2177_235" x1="145.41" y1="6.83945" x2="547.197" y2="682.909" gradientUnits="userSpaceOnUse">
<stop stop-color="#B6D997"/>
<stop offset="1" stop-color="#B6D997" stop-opacity="0"/>
</linearGradient>
<linearGradient id="paint1_linear_2177_235" x1="1082.22" y1="463.361" x2="1256.16" y2="801.913" gradientUnits="userSpaceOnUse">
<stop stop-color="#B6D997"/>
<stop offset="1" stop-color="#B6D997" stop-opacity="0"/>
</linearGradient>
<linearGradient id="paint2_linear_2177_235" x1="148.693" y1="-12.0948" x2="559.18" y2="679.137" gradientUnits="userSpaceOnUse">
<stop stop-color="#B6D997"/>
<stop offset="1" stop-color="#B6D997" stop-opacity="0"/>
</linearGradient>
<linearGradient id="paint3_linear_2177_235" x1="1089.59" y1="457.738" x2="1263.39" y2="804.567" gradientUnits="userSpaceOnUse">
<stop stop-color="#B6D997"/>
<stop offset="1" stop-color="#B6D997" stop-opacity="0"/>
</linearGradient>
<linearGradient id="paint4_linear_2177_235" x1="1096.65" y1="452.601" x2="1269.81" y2="807.514" gradientUnits="userSpaceOnUse">
<stop stop-color="#B6D997"/>
<stop offset="1" stop-color="#B6D997" stop-opacity="0"/>
</linearGradient>
<linearGradient id="paint5_linear_2177_235" x1="152.288" y1="-30.7292" x2="570.95" y2="676.142" gradientUnits="userSpaceOnUse">
<stop stop-color="#B6D997"/>
<stop offset="1" stop-color="#B6D997" stop-opacity="0"/>
</linearGradient>
<linearGradient id="paint6_linear_2177_235" x1="156.119" y1="-49.2537" x2="582.59" y2="673.924" gradientUnits="userSpaceOnUse">
<stop stop-color="#B6D997"/>
<stop offset="1" stop-color="#B6D997" stop-opacity="0"/>
</linearGradient>
<linearGradient id="paint7_linear_2177_235" x1="1103.12" y1="447.834" x2="1275.26" y2="810.736" gradientUnits="userSpaceOnUse">
<stop stop-color="#B6D997"/>
<stop offset="1" stop-color="#B6D997" stop-opacity="0"/>
</linearGradient>
<linearGradient id="paint8_linear_2177_235" x1="1108.94" y1="443.459" x2="1279.45" y2="814.176" gradientUnits="userSpaceOnUse">
<stop stop-color="#B6D997"/>
<stop offset="1" stop-color="#B6D997" stop-opacity="0"/>
</linearGradient>
<linearGradient id="paint9_linear_2177_235" x1="160.228" y1="-67.4553" x2="593.795" y2="672.58" gradientUnits="userSpaceOnUse">
<stop stop-color="#B6D997"/>
<stop offset="1" stop-color="#B6D997" stop-opacity="0"/>
</linearGradient>
<linearGradient id="paint10_linear_2177_235" x1="1113.78" y1="439.483" x2="1282.21" y2="817.952" gradientUnits="userSpaceOnUse">
<stop stop-color="#B6D997"/>
<stop offset="1" stop-color="#B6D997" stop-opacity="0"/>
</linearGradient>
<linearGradient id="paint11_linear_2177_235" x1="164.854" y1="-85.4695" x2="604.905" y2="672.265" gradientUnits="userSpaceOnUse">
<stop stop-color="#B6D997"/>
<stop offset="1" stop-color="#B6D997" stop-opacity="0"/>
</linearGradient>
<linearGradient id="paint12_linear_2177_235" x1="1117.02" y1="435.938" x2="1282.69" y2="822.114" gradientUnits="userSpaceOnUse">
<stop stop-color="#B6D997"/>
<stop offset="1" stop-color="#B6D997" stop-opacity="0"/>
</linearGradient>
<linearGradient id="paint13_linear_2177_235" x1="169.904" y1="-103.299" x2="615.6" y2="673.239" gradientUnits="userSpaceOnUse">
<stop stop-color="#B6D997"/>
<stop offset="1" stop-color="#B6D997" stop-opacity="0"/>
</linearGradient>
<linearGradient id="paint14_linear_2177_235" x1="175.826" y1="-120.908" x2="625.856" y2="676.054" gradientUnits="userSpaceOnUse">
<stop stop-color="#B6D997"/>
<stop offset="1" stop-color="#B6D997" stop-opacity="0"/>
</linearGradient>
<linearGradient id="paint15_linear_2177_235" x1="1117.67" y1="432.796" x2="1279.61" y2="826.795" gradientUnits="userSpaceOnUse">
<stop stop-color="#B6D997"/>
<stop offset="1" stop-color="#B6D997" stop-opacity="0"/>
</linearGradient>
<linearGradient id="paint16_linear_2177_235" x1="1111.92" y1="430.044" x2="1268.42" y2="832.709" gradientUnits="userSpaceOnUse">
<stop stop-color="#B6D997"/>
<stop offset="1" stop-color="#B6D997" stop-opacity="0"/>
</linearGradient>
<linearGradient id="paint17_linear_2177_235" x1="183.507" y1="-138.283" x2="635.422" y2="682.522" gradientUnits="userSpaceOnUse">
<stop stop-color="#B6D997"/>
<stop offset="1" stop-color="#B6D997" stop-opacity="0"/>
</linearGradient>
<linearGradient id="paint18_linear_2177_235" x1="316.908" y1="-155.565" x2="636.189" y2="828.981" gradientUnits="userSpaceOnUse">
<stop stop-color="#B6D997"/>
<stop offset="1" stop-color="#B6D997" stop-opacity="0"/>
</linearGradient>
<linearGradient id="paint19_linear_2177_235" x1="321.361" y1="-172.595" x2="646.673" y2="827.789" gradientUnits="userSpaceOnUse">
<stop stop-color="#B6D997"/>
<stop offset="1" stop-color="#B6D997" stop-opacity="0"/>
</linearGradient>
<linearGradient id="paint20_linear_2177_235" x1="325.72" y1="-189.518" x2="657.056" y2="826.711" gradientUnits="userSpaceOnUse">
<stop stop-color="#B6D997"/>
<stop offset="1" stop-color="#B6D997" stop-opacity="0"/>
</linearGradient>
<linearGradient id="paint21_linear_2177_235" x1="330.143" y1="-206.201" x2="667.303" y2="825.644" gradientUnits="userSpaceOnUse">
<stop stop-color="#B6D997"/>
<stop offset="1" stop-color="#B6D997" stop-opacity="0"/>
</linearGradient>
<linearGradient id="paint22_linear_2177_235" x1="334.594" y1="-222.882" x2="677.597" y2="824.65" gradientUnits="userSpaceOnUse">
<stop stop-color="#B6D997"/>
<stop offset="1" stop-color="#B6D997" stop-opacity="0"/>
</linearGradient>
<linearGradient id="paint23_linear_2177_235" x1="339.033" y1="-239.256" x2="687.686" y2="823.733" gradientUnits="userSpaceOnUse">
<stop stop-color="#B6D997"/>
<stop offset="1" stop-color="#B6D997" stop-opacity="0"/>
</linearGradient>
<linearGradient id="paint24_linear_2177_235" x1="343.498" y1="-255.497" x2="697.682" y2="822.836" gradientUnits="userSpaceOnUse">
<stop stop-color="#B6D997"/>
<stop offset="1" stop-color="#B6D997" stop-opacity="0"/>
</linearGradient>
<linearGradient id="paint25_linear_2177_235" x1="344.518" y1="-248.522" x2="673.573" y2="796.525" gradientUnits="userSpaceOnUse">
<stop stop-color="#B6D997"/>
<stop offset="1" stop-color="#B6D997" stop-opacity="0"/>
</linearGradient>
<linearGradient id="paint26_linear_2177_235" x1="344.516" y1="-235.808" x2="642.133" y2="762.759" gradientUnits="userSpaceOnUse">
<stop stop-color="#B6D997"/>
<stop offset="1" stop-color="#B6D997" stop-opacity="0"/>
</linearGradient>
<linearGradient id="paint27_linear_2177_235" x1="344.538" y1="-246.551" x2="643.628" y2="754.242" gradientUnits="userSpaceOnUse">
<stop stop-color="#B6D997"/>
<stop offset="1" stop-color="#B6D997" stop-opacity="0"/>
</linearGradient>
<linearGradient id="paint28_linear_2177_235" x1="344.592" y1="-257.529" x2="645.444" y2="745.966" gradientUnits="userSpaceOnUse">
<stop stop-color="#B6D997"/>
<stop offset="1" stop-color="#B6D997" stop-opacity="0"/>
</linearGradient>
<linearGradient id="paint29_linear_2177_235" x1="344.518" y1="-268.494" x2="647.348" y2="737.996" gradientUnits="userSpaceOnUse">
<stop stop-color="#B6D997"/>
<stop offset="1" stop-color="#B6D997" stop-opacity="0"/>
</linearGradient>
<linearGradient id="paint30_linear_2177_235" x1="344.52" y1="-284.55" x2="652.332" y2="729.43" gradientUnits="userSpaceOnUse">
<stop stop-color="#B6D997"/>
<stop offset="1" stop-color="#B6D997" stop-opacity="0"/>
</linearGradient>
<linearGradient id="paint31_linear_2177_235" x1="344.546" y1="-303.639" x2="659.208" y2="720.499" gradientUnits="userSpaceOnUse">
<stop stop-color="#B6D997"/>
<stop offset="1" stop-color="#B6D997" stop-opacity="0"/>
</linearGradient>
<linearGradient id="paint32_linear_2177_235" x1="344.585" y1="-322.689" x2="666.343" y2="711.829" gradientUnits="userSpaceOnUse">
<stop stop-color="#B6D997"/>
<stop offset="1" stop-color="#B6D997" stop-opacity="0"/>
</linearGradient>
<linearGradient id="paint33_linear_2177_235" x1="344.555" y1="-341.718" x2="673.743" y2="703.519" gradientUnits="userSpaceOnUse">
<stop stop-color="#B6D997"/>
<stop offset="1" stop-color="#B6D997" stop-opacity="0"/>
</linearGradient>
<linearGradient id="paint34_linear_2177_235" x1="344.59" y1="-360.527" x2="681.272" y2="695.347" gradientUnits="userSpaceOnUse">
<stop stop-color="#B6D997"/>
<stop offset="1" stop-color="#B6D997" stop-opacity="0"/>
</linearGradient>
<linearGradient id="paint35_linear_2177_235" x1="344.56" y1="-379.304" x2="688.951" y2="687.358" gradientUnits="userSpaceOnUse">
<stop stop-color="#B6D997"/>
<stop offset="1" stop-color="#B6D997" stop-opacity="0"/>
</linearGradient>
<linearGradient id="paint36_linear_2177_235" x1="344.56" y1="-397.984" x2="697.009" y2="679.768" gradientUnits="userSpaceOnUse">
<stop stop-color="#B6D997"/>
<stop offset="1" stop-color="#B6D997" stop-opacity="0"/>
</linearGradient>
<linearGradient id="paint37_linear_2177_235" x1="344.555" y1="-416.692" x2="705.332" y2="672.326" gradientUnits="userSpaceOnUse">
<stop stop-color="#B6D997"/>
<stop offset="1" stop-color="#B6D997" stop-opacity="0"/>
</linearGradient>
<linearGradient id="paint38_linear_2177_235" x1="344.554" y1="-435.399" x2="713.936" y2="665.088" gradientUnits="userSpaceOnUse">
<stop stop-color="#B6D997"/>
<stop offset="1" stop-color="#B6D997" stop-opacity="0"/>
</linearGradient>
<linearGradient id="paint39_linear_2177_235" x1="344.556" y1="-453.996" x2="722.768" y2="658.065" gradientUnits="userSpaceOnUse">
<stop stop-color="#B6D997"/>
<stop offset="1" stop-color="#B6D997" stop-opacity="0"/>
</linearGradient>
</defs>
</svg>
