<svg preserveAspectRatio="none" overflow="visible" style="display: block;" width="131.314" height="15.545" viewBox="0 0 131.314 15.545" fill="none" xmlns="http://www.w3.org/2000/svg">
<g id="Group">
<path id="Vector" d="M0.00309946 15.2807V0.253648H8.38903C9.55375 0.253648 10.5135 0.447176 11.2713 0.834233C12.0291 1.22129 12.5944 1.75009 12.9671 2.42335C13.3398 3.09661 13.5293 3.86255 13.5293 4.72388C13.5293 5.58522 13.3119 6.41113 12.8802 7.11164C12.4485 7.81216 11.849 8.35731 11.0819 8.74437C10.3178 9.13143 9.43573 9.32496 8.43563 9.32496H1.97225V15.2835H0L0.00309946 15.2807ZM1.97535 7.83397H8.28965C9.25559 7.83397 10.0352 7.56139 10.6346 7.01352C11.234 6.46564 11.5322 5.71061 11.5322 4.74569C11.5322 4.11877 11.4111 3.58179 11.1688 3.13477C10.9266 2.69047 10.5663 2.34703 10.0818 2.10443C9.60034 1.86457 9.0009 1.74191 8.28343 1.74191H1.96914V7.83124L1.97535 7.83397Z" fill="var(--fill-0, white)"/>
<path id="Vector_2" d="M13.2311 15.2807L20.0455 0.256375H22.6917L29.5309 15.2807H27.4096L25.6113 11.3175H17.0266L15.2531 15.2807H13.2311ZM17.6974 9.8265H24.9342L22.6886 4.81111C22.6389 4.6939 22.5644 4.51945 22.465 4.28504C22.3656 4.05062 22.2538 3.78623 22.1296 3.48639C22.0053 3.18656 21.8811 2.884 21.7537 2.57872C21.6295 2.27343 21.5084 1.99541 21.3903 1.74736H21.2164C21.117 2.02539 20.9866 2.35248 20.8282 2.73408C20.6698 3.11296 20.5114 3.48912 20.353 3.86255C20.1946 4.23597 20.0579 4.55216 19.9399 4.81656L17.6943 9.83195L17.6974 9.8265Z" fill="var(--fill-0, white)"/>
<path id="Vector_3" d="M31.997 15.2807V0.253648H40.9824C42.1129 0.253648 43.0509 0.438999 43.7901 0.812427C44.5293 1.18586 45.0884 1.69285 45.4611 2.3334C45.8369 2.97668 46.0232 3.70718 46.0232 4.5249C46.0232 5.59067 45.7437 6.4929 45.1878 7.22885C44.6287 7.96753 43.8926 8.48815 42.9795 8.79616L46.6227 15.2807H44.4517L41.0321 9.10417H33.9692V15.2807H31.997ZM33.9692 7.61318H40.7836C41.7992 7.61318 42.5974 7.34061 43.1782 6.79273C43.759 6.24486 44.051 5.48982 44.051 4.5249C44.051 3.94159 43.9268 3.44551 43.6752 3.03664C43.4267 2.62778 43.0602 2.30887 42.5757 2.08263C42.0943 1.85639 41.4948 1.74191 40.7774 1.74191H33.963V7.61318H33.9692Z" fill="var(--fill-0, white)"/>
<path id="Vector_4" d="M53.7849 15.2807V1.76644H47.7191V0.256375H61.8696V1.76644H55.754V15.2807H53.7818H53.7849Z" fill="var(--fill-0, white)"/>
<path id="Vector_5" d="M64.5437 15.2807V0.253648H66.4663L75.2249 10.636C75.3243 10.7396 75.4454 10.8759 75.5883 11.0531C75.7312 11.2275 75.871 11.4074 76.0138 11.5901C76.1536 11.7727 76.2747 11.9362 76.3772 12.0834H76.5015V0.253648H78.424V15.278H76.7033L67.7677 4.67755C67.6496 4.53036 67.4695 4.30139 67.2179 3.98793C66.9694 3.67447 66.752 3.40735 66.5688 3.18928H66.4694V15.2807H64.5468H64.5437Z" fill="var(--fill-0, white)"/>
<path id="Vector_6" d="M82.9369 15.2807V0.253648H96.0407V1.74191H84.9091V6.82271H94.9412V8.33278H84.9091V13.787H96.1898V15.2753H82.9369V15.2807Z" fill="var(--fill-0, white)"/>
<path id="Vector_7" d="M99.8827 15.2807V0.253648H108.868C109.999 0.253648 110.937 0.438999 111.676 0.812427C112.415 1.18586 112.974 1.69285 113.347 2.3334C113.723 2.97668 113.909 3.70718 113.909 4.5249C113.909 5.59067 113.629 6.4929 113.073 7.22885C112.514 7.96753 111.778 8.48815 110.865 8.79616L114.508 15.2807H112.337L108.918 9.10417H101.855V15.2807H99.8827ZM101.855 7.61318H108.669C109.685 7.61318 110.483 7.34061 111.064 6.79273C111.645 6.24486 111.937 5.48982 111.937 4.5249C111.937 3.94159 111.812 3.44551 111.561 3.03664C111.312 2.62778 110.946 2.30887 110.461 2.08263C109.98 1.85639 109.381 1.74191 108.663 1.74191H101.849V7.61318H101.855Z" fill="var(--fill-0, white)"/>
<path id="Vector_8" d="M124.391 15.5423C123.475 15.5423 122.587 15.4687 121.72 15.3242C120.854 15.177 120.09 14.929 119.425 14.5801C118.76 14.2284 118.235 13.7705 117.853 13.2008C117.471 12.6311 117.279 11.9224 117.279 11.0775V10.8703C117.279 10.8049 117.288 10.734 117.304 10.6632H119.276C119.276 10.7204 119.273 10.8022 119.264 10.903C119.254 11.0066 119.251 11.0938 119.251 11.1647C119.251 11.808 119.472 12.3449 119.913 12.7756C120.354 13.2063 120.953 13.5279 121.711 13.7405C122.469 13.9531 123.32 14.0594 124.27 14.0594C124.587 14.0594 124.966 14.0404 125.407 14.0049C125.848 13.9695 126.298 13.8959 126.755 13.7869C127.212 13.6778 127.634 13.5252 128.016 13.3262C128.398 13.13 128.712 12.8737 128.951 12.5603C129.193 12.2468 129.314 11.857 129.314 11.3882C129.314 10.8485 129.146 10.4015 128.814 10.0526C128.482 9.70096 128.044 9.41476 127.503 9.18852C126.963 8.96228 126.342 8.76057 125.643 8.58613C124.944 8.41168 124.23 8.24268 123.497 8.08186C122.764 7.92104 122.053 7.73842 121.363 7.53398C120.674 7.32955 120.052 7.07333 119.503 6.76805C118.953 6.46276 118.518 6.07843 118.192 5.61778C117.869 5.15713 117.704 4.5929 117.704 3.91964C117.704 3.33632 117.838 2.80208 118.105 2.31962C118.372 1.83716 118.779 1.42557 119.329 1.08212C119.878 0.738679 120.577 0.471555 121.425 0.283478C122.273 0.0926756 123.279 0 124.444 0C125.326 0 126.149 0.0790469 126.916 0.239866C127.681 0.400686 128.354 0.651455 128.938 0.9949C129.522 1.33835 129.973 1.76901 130.299 2.28691C130.622 2.8048 130.786 3.429 130.786 4.1595V4.42117H128.839V4.04775C128.839 3.50805 128.646 3.05012 128.264 2.67942C127.882 2.30599 127.37 2.01433 126.73 1.80445C126.09 1.59184 125.36 1.48554 124.547 1.48554C123.432 1.48554 122.515 1.58366 121.801 1.77992C121.087 1.97617 120.552 2.24602 120.205 2.58947C119.857 2.93291 119.68 3.31724 119.68 3.73973C119.68 4.23582 119.847 4.64741 120.18 4.97723C120.512 5.30704 120.953 5.57689 121.503 5.78678C122.053 5.99939 122.671 6.18746 123.363 6.35646C124.053 6.52546 124.764 6.689 125.497 6.84982C126.23 7.01064 126.941 7.19599 127.631 7.4086C128.32 7.62121 128.945 7.88288 129.504 8.19634C130.06 8.50981 130.501 8.89959 130.827 9.36842C131.15 9.83725 131.314 10.4124 131.314 11.0993C131.314 12.1351 131.019 12.9828 130.429 13.6397C129.839 14.2966 129.028 14.779 127.997 15.0843C126.966 15.3896 125.767 15.545 124.404 15.545L124.391 15.5423Z" fill="var(--fill-0, white)"/>
</g>
</svg>
